<?xml version="1.0" standalone="no"?>
<!DOCTYPE svg PUBLIC "-//W3C//DTD SVG 20010904//EN"
        "http://www.w3.org/TR/2001/REC-SVG-20010904/DTD/svg10.dtd">
<svg version="1.0" xmlns="http://www.w3.org/2000/svg"
     width="1092.000000pt" height="1092.000000pt" viewBox="0 0 1092.000000 1092.000000"
     preserveAspectRatio="xMidYMid meet">
    <metadata>
        Created by potrace 1.14, written by Peter Selinger 2001-2017
    </metadata>
    <g transform="translate(0.000000,1092.000000) scale(0.100000,-0.100000)"
       fill="#000000" stroke="none">
        <path d="M3587 10904 c-149 -28 -293 -87 -411 -167 -82 -56 -91 -63 -173 -146
-109 -110 -197 -248 -246 -386 -22 -62 -29 -92 -52 -210 -13 -66 -13 -235 0
-323 16 -101 59 -241 101 -324 160 -319 491 -554 839 -594 589 -68 1116 330
1209 913 13 82 14 275 2 338 -23 115 -52 207 -94 295 -149 315 -448 543 -788
604 -98 17 -296 17 -387 0z"/>
        <path d="M9479 9476 c-2 -2 -29 -7 -59 -10 -121 -14 -291 -72 -417 -141 -228
-125 -427 -344 -535 -590 -33 -73 -75 -219 -83 -283 -4 -26 -8 -55 -11 -64 -6
-19 -6 -252 0 -288 2 -14 7 -45 11 -70 23 -155 125 -402 205 -497 8 -10 28
-36 44 -57 111 -147 303 -295 486 -372 77 -32 245 -77 330 -89 117 -15 336 -2
445 26 22 6 47 12 55 14 79 16 358 155 390 194 3 3 21 18 41 33 49 36 161 152
210 217 102 138 182 311 219 477 28 124 35 344 15 454 -7 41 -16 89 -19 107
-8 44 -52 165 -89 243 -54 114 -138 232 -242 335 -189 190 -397 298 -675 350
-37 7 -315 16 -321 11z"/>
        <path d="M2175 8170 c-217 -32 -405 -89 -575 -175 -70 -35 -186 -105 -220
-132 -8 -6 -51 -40 -95 -74 -339 -266 -633 -697 -828 -1214 -55 -144 -130
-378 -153 -475 -2 -8 -14 -59 -28 -113 -14 -53 -27 -110 -30 -125 -2 -15 -11
-58 -19 -97 -9 -38 -18 -87 -21 -107 -3 -21 -10 -57 -15 -80 -5 -24 -13 -68
-16 -98 -4 -30 -8 -57 -10 -60 -2 -3 -6 -32 -10 -65 -6 -62 -12 -108 -20 -160
-2 -16 -7 -64 -10 -105 -3 -41 -8 -88 -10 -105 -27 -209 -27 -1078 0 -1305 2
-14 6 -54 10 -90 54 -556 186 -1066 408 -1580 47 -110 210 -432 238 -471 10
-15 19 -30 19 -33 0 -6 48 -84 99 -161 33 -51 154 -217 184 -252 412 -494 891
-800 1552 -993 55 -16 111 -31 125 -34 14 -3 36 -7 50 -10 71 -16 129 -26 165
-31 22 -2 63 -9 90 -14 50 -9 452 -8 491 2 12 3 38 8 58 11 191 31 437 128
598 237 465 316 785 979 943 1954 13 83 27 176 30 208 4 32 8 66 10 75 2 15 7
54 20 192 3 33 15 179 20 255 22 305 22 892 0 1147 -2 23 -7 81 -11 128 -4 47
-8 96 -9 110 -2 25 -13 121 -20 170 -2 14 -7 48 -11 75 -3 28 -8 59 -10 70 -2
11 -7 40 -10 65 -3 25 -8 52 -9 60 -2 8 -15 74 -30 145 -15 72 -42 191 -62
265 -19 74 -38 149 -43 165 -21 82 -99 308 -156 452 -104 261 -187 418 -318
603 -76 107 -99 134 -211 245 -268 268 -587 426 -989 489 -81 13 -316 22 -316
13 0 -2 12 -17 26 -33 203 -228 366 -588 483 -1068 35 -139 80 -363 97 -476 3
-19 11 -73 19 -120 18 -115 28 -180 30 -210 1 -14 5 -50 9 -80 4 -30 9 -77 12
-105 2 -27 7 -66 9 -85 2 -19 7 -75 11 -125 3 -49 7 -106 9 -125 24 -243 24
-1136 0 -1380 -1 -19 -6 -80 -10 -135 -4 -55 -8 -111 -10 -125 -2 -14 -6 -56
-10 -95 -4 -38 -8 -81 -10 -95 -2 -14 -6 -45 -10 -70 -11 -91 -24 -176 -30
-210 -3 -14 -7 -43 -10 -65 -4 -34 -17 -100 -71 -365 -25 -123 -131 -476 -169
-565 -111 -256 -221 -432 -329 -524 -15 -14 -34 -30 -40 -37 -21 -20 -128 -70
-177 -82 -64 -16 -193 -8 -261 17 -128 45 -211 97 -316 198 -191 185 -343 463
-476 868 -41 125 -121 418 -132 485 -3 14 -16 79 -29 145 -13 66 -26 136 -29
155 -3 19 -8 53 -11 75 -4 22 -8 51 -10 65 -10 62 -45 363 -50 435 -3 44 -8
105 -11 135 -10 124 -18 420 -17 650 1 366 16 624 53 930 5 41 12 98 15 125 4
28 10 75 15 105 5 30 12 73 15 95 12 79 85 432 109 525 67 260 65 253 147 500
243 734 524 1050 991 1113 118 16 321 12 398 -8 8 -2 31 -6 51 -9 42 -6 201
-43 244 -56 512 -159 817 -310 1180 -584 79 -60 102 -79 199 -166 287 -257
534 -599 680 -940 15 -36 34 -78 41 -95 29 -67 103 -320 120 -415 3 -14 7 -36
10 -50 21 -107 29 -207 29 -390 1 -163 -8 -332 -18 -349 -2 -3 -7 -33 -11 -65
-18 -161 -108 -478 -168 -596 -18 -36 -56 -97 -85 -136 -57 -78 -61 -90 -34
-98 20 -5 153 -33 197 -41 144 -25 394 -23 467 4 18 7 31 2 63 -24 110 -89
258 -135 482 -150 l82 -5 -13 43 c-8 23 -21 62 -30 87 -28 75 -38 263 -23 450
6 76 10 107 22 175 99 572 517 1077 1103 1334 176 77 407 146 562 167 25 3 53
8 64 10 103 19 468 27 576 11 350 -50 562 -234 648 -562 28 -108 41 -182 59
-340 15 -142 6 -833 -12 -865 -1 -3 -6 -37 -9 -76 -4 -39 -9 -82 -11 -95 -3
-13 -8 -44 -10 -69 -3 -25 -8 -52 -10 -60 -2 -8 -7 -37 -11 -65 -3 -27 -8 -53
-10 -56 -2 -4 -6 -24 -10 -45 -3 -22 -12 -66 -19 -99 -8 -33 -16 -71 -19 -85
-6 -33 -54 -223 -71 -280 -7 -25 -23 -79 -35 -120 -223 -754 -585 -1400 -930
-1657 -218 -163 -473 -178 -602 -35 -91 100 -153 277 -176 495 -14 138 -6 597
12 694 2 10 7 45 10 78 4 33 9 71 11 85 2 14 7 45 10 70 3 25 8 52 10 60 2 8
6 33 10 55 3 22 12 72 20 110 8 39 17 86 20 105 20 116 118 493 181 700 41
130 132 394 154 445 5 11 39 92 76 180 212 508 475 900 706 1055 l58 38 -68
21 c-201 61 -523 47 -732 -32 -310 -116 -556 -337 -816 -732 -195 -297 -344
-608 -472 -990 -38 -114 -106 -347 -117 -403 -2 -9 -11 -46 -20 -82 -9 -36
-19 -76 -21 -90 -3 -14 -7 -32 -10 -40 -3 -8 -12 -49 -20 -90 -8 -41 -16 -86
-19 -100 -18 -87 -39 -225 -51 -325 -3 -33 -8 -67 -9 -76 -19 -101 -27 -605
-12 -744 73 -677 395 -1051 1002 -1162 137 -26 538 -24 665 2 14 3 43 8 65 10
22 3 48 8 57 11 9 3 25 7 35 9 162 33 355 103 512 186 90 48 275 168 316 206
11 10 34 29 50 41 39 30 183 171 260 253 65 70 90 98 150 174 22 28 43 52 46
55 3 3 42 57 86 120 269 383 448 780 598 1329 20 74 38 142 40 150 2 9 15 69
29 134 15 65 29 134 32 155 6 42 12 77 18 107 2 11 7 43 10 70 4 28 9 61 11
75 38 263 47 677 20 908 -8 65 -17 135 -20 152 -1 8 -6 35 -10 60 -53 331
-231 702 -436 909 -173 174 -443 315 -704 367 -110 22 -183 34 -250 41 -150
15 -697 7 -765 -12 -8 -2 -37 -6 -65 -9 -27 -3 -62 -8 -77 -11 -16 -3 -40 -7
-55 -10 -16 -3 -44 -8 -63 -11 -19 -3 -89 -19 -155 -35 -66 -16 -131 -32 -145
-35 -67 -14 -332 -109 -470 -168 -268 -114 -546 -276 -741 -432 -44 -36 -82
-64 -83 -62 -1 2 -21 57 -45 123 -99 281 -336 698 -536 944 -312 383 -707 744
-1105 1008 -171 113 -209 137 -335 210 -208 121 -478 249 -730 348 -158 63
-535 180 -645 201 -14 3 -43 10 -65 16 -45 12 -51 13 -160 33 -109 20 -143 25
-190 30 -22 3 -56 8 -75 11 -19 3 -141 7 -270 9 -187 3 -259 0 -355 -15z"/>
    </g>
</svg>
